HIERARCHY
ROOT Hips
{
	OFFSET 0.000000 0.000000 0.000000 
	CHANNELS 6 Xposition Yposition Zposition Xrotation Yrotation Zrotation
	JOINT Spine
	{
		OFFSET 0.000000 1.722820 2.584230 
		CHANNELS 3 Xrotation Yrotation Zrotation
		JOINT Spine1
		{
			OFFSET 0.000000 0.598330 3.393290 
			CHANNELS 3 Xrotation Yrotation Zrotation
			JOINT Spine2
			{
				OFFSET 0.000000 0.300310 3.432520 
				CHANNELS 3 Xrotation Yrotation Zrotation
				JOINT Spine3
				{
					OFFSET 0.000000 0.000000 3.445640 
					CHANNELS 3 Xrotation Yrotation Zrotation
					JOINT Neck
					{
						OFFSET 0.000000 -1.292100 9.044790 
						CHANNELS 3 Xrotation Yrotation Zrotation
						JOINT Head
						{
							OFFSET 0.000000 -0.822700 4.665770 
							CHANNELS 3 Xrotation Yrotation Zrotation
							End Site
							{
								OFFSET 0.000000 0.000010 5.577620 
							}
						}
					}
					JOINT RightShoulder
					{
						OFFSET -1.175120 -1.958530 6.345670 
						CHANNELS 3 Xrotation Yrotation Zrotation
						JOINT RightArm
						{
							OFFSET -5.836450 0.000000 0.000000 
							CHANNELS 3 Xrotation Yrotation Zrotation
							JOINT RightForeArm
							{
								OFFSET -10.886420 0.000000 0.000000 
								CHANNELS 3 Xrotation Yrotation Zrotation
								JOINT RightHand
								{
									OFFSET -10.194950 0.000000 0.000000 
									CHANNELS 3 Xrotation Yrotation Zrotation
									JOINT RightHandEnd
									{
										OFFSET -2.735920 0.000000 0.000000 
										CHANNELS 3 Xrotation Yrotation Zrotation
										End Site
										{
											OFFSET -2.735920 0.000000 0.000000 
										}
									}
									JOINT RightHandThumb1
									{
										OFFSET -1.094370 -1.823950 -0.729580 
										CHANNELS 3 Yrotation Xrotation Zrotation
										End Site
										{
											OFFSET -2.642700 -0.708110 0.000000 
										}
									}
								}
							}
						}
					}
					JOINT LeftShoulder
					{
						OFFSET 1.175120 -1.958530 6.345670 
						CHANNELS 3 Xrotation Yrotation Zrotation
						JOINT LeftArm
						{
							OFFSET 5.836450 0.000000 0.000000 
							CHANNELS 3 Xrotation Yrotation Zrotation
							JOINT LeftForeArm
							{
								OFFSET 10.886420 0.000000 0.000000 
								CHANNELS 3 Xrotation Yrotation Zrotation
								JOINT LeftHand
								{
									OFFSET 10.194950 0.000000 0.000000 
									CHANNELS 3 Xrotation Yrotation Zrotation
									JOINT LeftHandEnd
									{
										OFFSET 2.735920 0.000000 0.000000 
										CHANNELS 3 Xrotation Yrotation Zrotation
										End Site
										{
											OFFSET 2.735920 0.000000 0.000000 
										}
									}
									JOINT LeftHandThumb1
									{
										OFFSET 1.094370 -1.823950 -0.729580 
										CHANNELS 3 Yrotation Xrotation Zrotation
										End Site
										{
											OFFSET 2.642700 -0.708110 0.000000 
										}
									}
								}
							}
						}
					}
				}
			}
		}
	}
	JOINT RightUpLeg
	{
		OFFSET -3.486200 0.000000 -1.018440 
		CHANNELS 3 Xrotation Yrotation Zrotation
		JOINT RightLeg
		{
			OFFSET 0.000010 0.000000 -16.688210 
			CHANNELS 3 Xrotation Yrotation Zrotation
			JOINT RightFoot
			{
				OFFSET 0.000010 0.000000 -16.775360 
				CHANNELS 3 Xrotation Yrotation Zrotation
				JOINT RightToeBase
				{
					OFFSET 0.000000 -4.945160 -1.799890 
					CHANNELS 3 Xrotation Yrotation Zrotation
					End Site
					{
						OFFSET 0.000000 -2.820300 -0.000000 
					}
				}
			}
		}
	}
	JOINT LeftUpLeg
	{
		OFFSET 3.486200 0.000000 -1.018440 
		CHANNELS 3 Xrotation Yrotation Zrotation
		JOINT LeftLeg
		{
			OFFSET 0.000010 0.000000 -16.688210 
			CHANNELS 3 Xrotation Yrotation Zrotation
			JOINT LeftFoot
			{
				OFFSET 0.000010 0.000000 -16.775360 
				CHANNELS 3 Xrotation Yrotation Zrotation
				JOINT LeftToeBase
				{
					OFFSET 0.000000 -4.945160 -1.799890 
					CHANNELS 3 Xrotation Yrotation Zrotation
					End Site
					{
						OFFSET 0.000000 -2.820300 -0.000000 
					}
				}
			}
		}
	}
}
MOTION
Frames: 12
Frame Time: 0.008333
40.142799 36.489899 -3.799000 -88.974899 0.419600 -2.314900 -1.624000 0.337600 -0.213500 -0.165900 -0.021000 -0.048900 1.991400 -1.141600 -0.208600 -0.214300 -0.011400 0.069800 -2.713900 -3.176600 -0.495000 -7.440200 6.060100 2.598700 7.043100 -7.708400 -1.984300 53.459499 -49.695400 44.980202 0.000000 0.000000 27.188299 7.465700 -11.001700 -7.140200 0.000000 -0.000000 0.000000 0.000000 0.000000 0.000000 5.215200 14.791100 3.522000 19.254200 59.885300 -9.199000 -0.000000 -0.000000 -29.820900 12.781300 18.381201 12.775300 0.000000 0.000000 0.000000 -0.000000 0.000000 -0.000000 0.482800 2.533300 -10.037400 15.642100 0.000000 0.000000 -14.698400 -2.580900 -2.578800 -1.295000 0.000000 -0.000000 2.274200 -4.174700 7.161800 12.819600 0.000000 0.000000 -17.538500 4.657900 1.465500 -0.894400 0.000000 -0.000000 
40.139000 36.489700 -3.793500 -88.963600 0.417300 -2.292700 -1.612400 0.329200 -0.210500 -0.164300 -0.027600 -0.050800 1.981800 -1.143700 -0.222100 -0.216400 -0.013500 0.063300 -2.702600 -3.165800 -0.479300 -7.416300 6.064300 2.603000 7.039100 -7.680900 -1.938100 53.159100 -49.647598 44.722198 0.000000 0.000000 27.285101 7.444400 -11.020000 -7.044900 -0.000000 0.000000 0.000000 -0.000000 -0.000000 -0.000000 5.202000 14.766600 3.498300 19.668200 59.751202 -9.569200 -0.000000 -0.000000 -30.065201 12.250300 17.843100 13.116600 -0.000000 0.000000 -0.000000 -0.000000 -0.000000 0.000000 0.490600 2.527200 -10.055100 15.629100 0.000000 0.000000 -14.704000 -2.580100 -2.583300 -1.295600 0.000000 -0.000000 2.271100 -4.179600 7.142200 12.813000 0.000000 0.000000 -17.535000 4.659700 1.463300 -0.900300 0.000000 -0.000000 
40.134998 36.489498 -3.788500 -88.951302 0.414400 -2.268300 -1.599800 0.321000 -0.208100 -0.162400 -0.034200 -0.052700 1.970500 -1.145600 -0.234300 -0.218600 -0.016400 0.056800 -2.691200 -3.151600 -0.462500 -7.388900 6.067200 2.602800 7.032700 -7.648100 -1.890700 52.783100 -49.636799 44.408199 0.000000 0.000000 27.380199 7.356000 -11.028600 -6.980200 0.000000 -0.000000 -0.000000 0.000000 0.000000 -0.000000 5.188800 14.743500 3.472600 20.023800 59.601700 -9.897300 -0.000000 -0.000000 -30.330400 11.788300 17.331699 13.411900 -0.000000 0.000000 -0.000000 0.000000 -0.000000 -0.000000 0.496400 2.521100 -10.073500 15.616800 0.000000 0.000000 -14.709500 -2.578900 -2.589300 -1.296100 0.000000 -0.000000 2.265200 -4.184600 7.122600 12.807200 0.000000 0.000000 -17.530701 4.662100 1.458900 -0.905500 0.000000 -0.000000 
40.130901 36.489300 -3.784100 -88.938202 0.411100 -2.241700 -1.585900 0.313000 -0.206100 -0.160300 -0.040600 -0.054400 1.957000 -1.147500 -0.245400 -0.221000 -0.019800 0.050500 -2.678500 -3.134900 -0.445200 -7.358600 6.069100 2.598100 7.024500 -7.610400 -1.841800 52.345901 -49.657501 44.051102 0.000000 0.000000 27.474400 7.219000 -11.020000 -6.954400 -0.000000 -0.000000 0.000000 0.000000 -0.000000 0.000000 5.175900 14.720300 3.444400 20.312799 59.443001 -10.175700 -0.000000 -0.000000 -30.607500 11.430500 16.859600 13.632200 -0.000000 0.000000 -0.000000 0.000000 -0.000000 -0.000000 0.500500 2.515100 -10.092800 15.604800 0.000000 0.000000 -14.714700 -2.577100 -2.596500 -1.296600 0.000000 -0.000000 2.256800 -4.189900 7.102700 12.802100 0.000000 0.000000 -17.525801 4.664900 1.452700 -0.909900 0.000000 -0.000000 
40.126598 36.489300 -3.780100 -88.924500 0.407500 -2.212900 -1.570600 0.305200 -0.204600 -0.157900 -0.046700 -0.056000 1.941000 -1.149500 -0.255700 -0.223800 -0.023100 0.044600 -2.663200 -3.116900 -0.428000 -7.326100 6.070600 2.589500 7.015000 -7.569400 -1.792100 51.852402 -49.702400 43.656101 0.000000 0.000000 27.564600 7.053000 -11.014000 -6.957400 0.000000 -0.000000 0.000000 -0.000000 0.000000 0.000000 5.160000 14.689900 3.411300 20.502300 59.291199 -10.379500 -0.000000 -0.000000 -30.878799 11.218700 16.474501 13.765500 -0.000000 0.000000 -0.000000 -0.000000 -0.000000 0.000000 0.503400 2.509000 -10.113000 15.593000 0.000000 0.000000 -14.719700 -2.575000 -2.604900 -1.297000 0.000000 -0.000000 2.246400 -4.195300 7.082400 12.797300 0.000000 0.000000 -17.520201 4.668500 1.444500 -0.913500 0.000000 -0.000000 
40.122299 36.489201 -3.776500 -88.910202 0.403400 -2.182100 -1.553800 0.297900 -0.203500 -0.155300 -0.052400 -0.057500 1.922000 -1.152100 -0.265100 -0.226800 -0.025200 0.039500 -2.645200 -3.099900 -0.412100 -7.291000 6.072600 2.577800 7.004900 -7.527300 -1.742700 51.306801 -49.764198 43.228100 0.000000 0.000000 27.645500 6.881200 -11.032800 -6.970600 -0.000000 0.000000 -0.000000 0.000000 -0.000000 -0.000000 5.136900 14.648300 3.375100 20.478001 59.160500 -10.413500 -0.000000 -0.000000 -31.125099 11.128000 16.288500 13.786200 -0.000000 0.000000 -0.000000 0.000000 0.000000 -0.000000 0.505300 2.502800 -10.134100 15.581200 0.000000 0.000000 -14.724500 -2.572400 -2.614500 -1.297200 0.000000 -0.000000 2.234200 -4.200900 7.062000 12.792900 0.000000 0.000000 -17.513901 4.672600 1.434500 -0.916300 0.000000 -0.000000 
40.118000 36.489300 -3.773300 -88.895599 0.398800 -2.148600 -1.535500 0.290900 -0.202300 -0.152200 -0.057900 -0.058800 1.899600 -1.154600 -0.274600 -0.230200 -0.025500 0.035100 -2.624100 -3.084500 -0.397900 -7.252600 6.075300 2.563200 6.989400 -7.480300 -1.694300 50.741001 -49.831001 42.798901 0.000000 0.000000 27.698400 6.808700 -11.041500 -6.996800 0.000000 -0.000000 -0.000000 0.000000 0.000000 -0.000000 5.105100 14.596700 3.338500 20.216499 59.051601 -10.255600 -0.000000 -0.000000 -31.345800 11.082200 16.288500 13.700000 -0.000000 -0.000000 -0.000000 -0.000000 -0.000000 -0.000000 0.506400 2.497300 -10.157900 15.569300 0.000000 0.000000 -14.729100 -2.569800 -2.624000 -1.297200 0.000000 -0.000000 2.220200 -4.205900 7.039400 12.788700 0.000000 0.000000 -17.506901 4.676900 1.423900 -0.918200 0.000000 -0.000000 
40.113300 36.489399 -3.770600 -88.880798 0.393700 -2.114700 -1.515700 0.284100 -0.202400 -0.148500 -0.061900 -0.059800 1.874300 -1.157600 -0.281400 -0.234100 -0.025000 0.032400 -2.600200 -3.071200 -0.385100 -7.211400 6.079300 2.546100 6.963100 -7.420900 -1.646900 50.184200 -49.900002 42.401299 0.000000 0.000000 27.699699 6.927900 -11.017600 -7.032600 0.000000 -0.000000 0.000000 0.000000 -0.000000 0.000000 5.062200 14.532900 3.303800 19.821899 58.962399 -9.993500 -0.000000 -0.000000 -31.546000 11.050300 16.338100 13.544300 0.000000 -0.000000 -0.000000 -0.000000 -0.000000 0.000000 0.506700 2.491400 -10.180100 15.557500 0.000000 0.000000 -14.733500 -2.566400 -2.635600 -1.297000 0.000000 -0.000000 2.205600 -4.211500 7.019300 12.784000 0.000000 0.000000 -17.498800 4.682400 1.410600 -0.919700 0.000000 -0.000000 
40.108601 36.489601 -3.768200 -88.865898 0.388200 -2.079400 -1.494600 0.277400 -0.202900 -0.144200 -0.065300 -0.060600 1.846400 -1.160300 -0.286600 -0.238500 -0.023800 0.030700 -2.573900 -3.059700 -0.373200 -7.167500 6.085500 2.526900 6.926200 -7.346900 -1.599300 49.643700 -49.975399 42.043499 0.000000 0.000000 27.648199 7.240000 -10.974400 -7.072400 0.000000 0.000000 -0.000000 -0.000000 -0.000000 0.000000 5.006000 14.455100 3.272700 19.396700 58.891102 -9.713000 -0.000000 -0.000000 -31.733700 11.003600 16.304001 13.376200 0.000000 0.000000 -0.000000 0.000000 -0.000000 0.000000 0.506500 2.485700 -10.202800 15.545800 0.000000 0.000000 -14.737600 -2.562600 -2.648000 -1.296700 0.000000 -0.000000 2.190100 -4.216900 6.999300 12.779100 0.000000 0.000000 -17.490000 4.688600 1.395800 -0.920300 0.000000 -0.000000 
40.103802 36.489799 -3.766100 -88.851097 0.382200 -2.042900 -1.471900 0.270700 -0.204000 -0.138700 -0.068300 -0.061100 1.815300 -1.162500 -0.290100 -0.243000 -0.022400 0.029600 -2.546000 -3.048000 -0.361200 -7.120700 6.092800 2.505000 6.880800 -7.262100 -1.552500 49.092300 -50.067001 41.700901 0.000000 0.000000 27.546801 7.658200 -10.923900 -7.110600 -0.000000 0.000000 -0.000000 -0.000000 -0.000000 -0.000000 4.938200 14.363600 3.246300 18.959200 58.837601 -9.429600 -0.000000 -0.000000 -31.913700 10.940000 16.167500 13.210500 -0.000000 -0.000000 -0.000000 0.000000 0.000000 0.000000 0.505700 2.480200 -10.226100 15.534200 0.000000 0.000000 -14.741600 -2.558600 -2.661100 -1.296300 0.000000 -0.000000 2.173800 -4.222200 6.979300 12.774300 0.000000 0.000000 -17.480499 4.695400 1.379800 -0.920100 0.000000 -0.000000 
40.098900 36.490101 -3.764500 -88.836502 0.375800 -2.005200 -1.447900 0.264100 -0.205400 -0.132400 -0.070900 -0.061500 1.782500 -1.164400 -0.292200 -0.248200 -0.021000 0.029200 -2.516500 -3.035000 -0.348900 -7.071600 6.100900 2.480700 6.830300 -7.173600 -1.501200 48.484299 -50.191002 41.325500 0.000000 0.000000 27.406799 8.081900 -10.891400 -7.149500 -0.000000 0.000000 -0.000000 -0.000000 -0.000000 -0.000000 4.860200 14.263900 3.219500 18.481001 58.792500 -9.111000 -0.000000 -0.000000 -32.094700 10.857600 16.019600 13.040100 -0.000000 0.000000 -0.000000 0.000000 -0.000000 0.000000 0.504500 2.475000 -10.250200 15.522900 0.000000 0.000000 -14.745400 -2.554400 -2.674400 -1.295700 0.000000 -0.000000 2.157000 -4.227300 6.958600 12.769000 0.000000 0.000000 -17.470301 4.702600 1.363300 -0.919100 0.000000 -0.000000 
40.094501 36.490398 -3.763200 -88.822197 0.368200 -1.961100 -1.422800 0.256100 -0.213200 -0.125200 -0.071600 -0.061600 1.747800 -1.166200 -0.292300 -0.253800 -0.020200 0.029200 -2.485100 -3.018400 -0.335000 -7.019200 6.108600 2.454200 6.776900 -7.082400 -1.445200 47.825001 -50.344898 40.918701 0.000000 0.000000 27.237200 8.469800 -10.860500 -7.197200 0.000000 0.000000 -0.000000 0.000000 -0.000000 -0.000000 4.774500 14.159100 3.192600 18.010401 58.744202 -8.800400 -0.000000 -0.000000 -32.278599 10.731300 15.854400 12.877900 -0.000000 0.000000 -0.000000 -0.000000 -0.000000 0.000000 0.504200 2.472000 -10.283700 15.511000 0.000000 0.000000 -14.748800 -2.551400 -2.684900 -1.295000 0.000000 -0.000000 2.138500 -4.230200 6.928200 12.763800 0.000000 0.000000 -17.459600 4.708700 1.349900 -0.917200 0.000000 -0.000000 
